<svg width="50" height="36" viewBox="0 0 50 36" fill="none" xmlns="http://www.w3.org/2000/svg">
<g clip-path="url(#clip0_1_90)">
<path d="M48.8957 29.6729C48.6089 30.7327 48.0495 31.6989 47.2732 32.4753C46.4968 33.2517 45.5306 33.8112 44.4707 34.098C40.5907 35.1562 24.9746 35.1562 24.9746 35.1562C24.9746 35.1562 9.35785 35.1242 5.47777 34.066C4.41791 33.7792 3.45168 33.2197 2.67532 32.4432C1.89895 31.6668 1.33953 30.7005 1.05277 29.6406C-0.120861 22.7465 -0.576134 12.2414 1.085 5.62304C1.37179 4.56319 1.93122 3.59696 2.70759 2.82056C3.48395 2.04417 4.45016 1.48469 5.51 1.19785C9.39008 0.139648 25.0065 0.139648 25.0065 0.139648C25.0065 0.139648 40.6227 0.139648 44.5026 1.19785C45.5625 1.48466 46.5287 2.04412 47.3051 2.82052C48.0815 3.59692 48.641 4.56317 48.9278 5.62304C50.1657 12.527 50.5471 23.0256 48.8957 29.6729Z" fill="#FF0000"/>
<path d="M20.0041 10.1446L32.9588 17.6481L20.0041 25.1516V10.1446Z" fill="white"/>
</g>
<defs>
<clipPath id="clip0_1_90">
<rect width="50" height="35.1562" fill="white" transform="matrix(1 0 0 -1 0 35.1562)"/>
</clipPath>
</defs>
</svg>
